<svg width="245" height="50" viewBox="0 0 245 50" fill="none" xmlns="http://www.w3.org/2000/svg">
<path d="M0 13.5L16.8525 1.64844V44.7282L14.4996 48.0006H3.94867L0 13.5Z" fill="black"/>
<path d="M18.7363 0L24.044 0.89985V48.0002L18.7363 44.3638V0Z" fill="black"/>
<path d="M25.7559 3.1875L33.9741 7.42643V45.4547L32.6328 48.0008H30.6357H29.0911H25.7559L25.7559 3.1875Z" fill="black"/>
<path d="M40.1377 14.2148L47.4999 17.0109V48.0004H43.8188L40.1377 44.5L40.1377 14.2148Z" fill="black"/>
<path d="M35.6865 9.68164L38.7684 11.3072V46.5L37.2274 47.9994H35.6865L35.6865 9.68164Z" fill="black"/>
<path d="M209.103 33.5568V49.0008H202.677V19.9488H209.103V23.9988C210.777 20.9748 213.639 19.3008 217.527 19.3008C222.063 19.3008 224.655 21.1908 226.005 24.4308C228.543 20.7588 231.837 19.3008 235.455 19.3008C242.367 19.3008 244.959 23.8368 244.959 30.7488V49.0008H238.533V32.3148C238.533 28.4268 238.155 24.5388 233.403 24.5388C228.651 24.5388 227.031 28.3188 227.031 33.5568V49.0008H220.605V32.3148C220.605 28.4268 220.227 24.5388 215.475 24.5388C210.723 24.5388 209.103 28.3188 209.103 33.5568Z" fill="black"/>
<path d="M190.097 48.9993V45.0033C188.423 48.0273 185.453 49.7013 181.511 49.7013C174.599 49.7013 171.791 45.1653 171.791 38.2533V19.9473H178.217V36.6873C178.217 40.5753 178.757 44.4633 183.563 44.4633C188.369 44.4633 190.097 40.6833 190.097 35.4453V19.9473H196.523V48.9993H190.097Z" fill="black"/>
<path d="M159.591 9.84961H166.017V16.3296H159.591V9.84961ZM159.591 19.9476H166.017V48.9996H159.591V19.9476Z" fill="black"/>
<path d="M135.298 9.84961V23.9976C136.972 20.9736 139.996 19.2996 144.1 19.2996C151.12 19.2996 153.982 23.8356 153.982 30.7476V48.9996H147.556V32.3136C147.556 28.4256 147.016 24.5376 142.048 24.5376C137.08 24.5376 135.298 28.3176 135.298 33.5556V48.9996H128.872V9.84961H135.298Z" fill="black"/>
<path d="M112.518 19.9473V12.2793H118.944V19.9473H124.776V24.5913H118.944V40.4133C118.944 43.3833 119.646 44.0853 122.4 44.0853H124.722V48.9993H119.97C113.76 48.9993 112.518 47.3253 112.518 41.3853V24.5913H108.198V19.9473H112.518Z" fill="black"/>
<path d="M99.022 9.84961H105.448V16.3296H99.022V9.84961ZM99.022 19.9476H105.448V48.9996H99.022V19.9476Z" fill="black"/>
<path d="M76.7511 9.84961V43.2216H96.4611V48.9996H69.8931V9.84961H76.7511Z" fill="black"/>
</svg>
