<svg width="269" height="34" viewBox="0 0 269 34" fill="none" xmlns="http://www.w3.org/2000/svg">
<path d="M0 9.0509L11.2981 1.10547V29.9866L9.72069 32.1805H2.64723L0 9.0509Z" fill="white"/>
<path d="M12.561 0L16.1193 0.60327V32.1799L12.561 29.7421V0Z" fill="white"/>
<path d="M17.2671 2.13672L22.7767 4.97855V30.4732L21.8775 32.1801H20.5386H19.5031H17.2671L17.2671 2.13672Z" fill="white"/>
<path d="M26.9087 9.5293L31.8444 11.4038V32.1795H29.3765L26.9087 29.8328L26.9087 9.5293Z" fill="white"/>
<path d="M23.9248 6.49023L25.9909 7.58006V31.1737L24.9579 32.1789H23.9248L23.9248 6.49023Z" fill="white"/>
<path d="M255.306 33.024V10.6148H247.052V6.77734H268.158V10.6148H259.904V33.024H255.306Z" fill="white"/>
<path d="M242.895 19.8826C242.895 11.5922 237.826 10.47 232.794 10.47H230.441V29.3313H232.794C237.826 29.3313 242.895 28.1729 242.895 19.8826ZM225.843 6.77734H233.011C241.302 6.77734 247.673 9.63732 247.673 19.8826C247.673 30.1278 241.302 33.024 233.011 33.024H225.843V6.77734Z" fill="white"/>
<path d="M217.962 33.024L212.423 21.9461C211.988 21.9823 211.518 21.9823 211.047 21.9823H206.594V33.024H201.997V6.77734H210.359C218.07 6.77734 222.053 8.51505 222.053 14.3436C222.053 17.7104 220.424 19.9912 217.129 21.1134L223.139 33.024H217.962ZM211.011 10.47H206.594V18.3259H211.156C215.102 18.3259 217.346 17.5294 217.346 14.3798C217.346 10.9406 214.631 10.47 211.011 10.47Z" fill="white"/>
<path d="M194.445 24.2992H198.862C197.74 30.2363 193.649 33.4945 187.531 33.4945C179.856 33.4945 175.403 28.0642 175.403 19.8101C175.403 11.5922 180.109 6.30664 187.748 6.30664C193.649 6.30664 197.74 9.56484 198.789 15.502H194.373C193.54 11.918 191.042 10.0717 187.603 10.0717C183.44 10.0717 180.145 13.4747 180.145 19.8101C180.145 26.1817 183.367 29.7295 187.567 29.7295C191.151 29.7295 193.613 27.9194 194.445 24.2992Z" fill="white"/>
<path d="M140.805 22.6687V33.0226H136.497V13.5458H140.805V16.2609C141.927 14.2336 143.846 13.1113 146.452 13.1113C149.493 13.1113 151.231 14.3784 152.136 16.5505C153.837 14.0888 156.046 13.1113 158.471 13.1113C163.105 13.1113 164.843 16.1523 164.843 20.7862V33.0226H160.535V21.8361C160.535 19.2295 160.281 16.6229 157.096 16.6229C153.91 16.6229 152.824 19.1571 152.824 22.6687V33.0226H148.516V21.8361C148.516 19.2295 148.262 16.6229 145.077 16.6229C141.891 16.6229 140.805 19.1571 140.805 22.6687Z" fill="white"/>
<path d="M128.063 33.0237V30.3447C126.94 32.372 124.949 33.4943 122.306 33.4943C117.673 33.4943 115.79 30.4533 115.79 25.8194V13.5469H120.098V24.7696C120.098 27.3761 120.46 29.9827 123.682 29.9827C126.904 29.9827 128.063 27.4485 128.063 23.9369V13.5469H132.371V33.0237H128.063Z" fill="white"/>
<path d="M107.611 6.77734H111.919V11.1216H107.611V6.77734ZM107.611 13.5472H111.919V33.024H107.611V13.5472Z" fill="white"/>
<path d="M91.3247 6.77734V16.2623C92.4469 14.235 94.4743 13.1127 97.2256 13.1127C101.932 13.1127 103.851 16.1537 103.851 20.7876V33.024H99.5426V21.8375C99.5426 19.2309 99.1806 16.6244 95.8499 16.6244C92.5193 16.6244 91.3247 19.1585 91.3247 22.6701V33.024H87.0166V6.77734H91.3247Z" fill="white"/>
<path d="M76.0529 13.547V8.40625H80.361V13.547H84.2708V16.6604H80.361V27.2676C80.361 29.2587 80.8316 29.7294 82.6779 29.7294H84.2346V33.0238H81.0488C76.8856 33.0238 76.0529 31.9015 76.0529 27.9193V16.6604H73.1567V13.547H76.0529Z" fill="white"/>
<path d="M67.0049 6.77734H71.313V11.1216H67.0049V6.77734ZM67.0049 13.5472H71.313V33.024H67.0049V13.5472Z" fill="white"/>
<path d="M52.0742 6.77734V29.1503H65.2881V33.024H47.4766V6.77734H52.0742Z" fill="white"/>
</svg>
